<mxfile host="Electron" modified="2025-07-03T00:15:15.181Z" agent="Mozilla/5.0 (Windows NT 10.0; Win64; x64) AppleWebKit/537.36 (KHTML, like Gecko) draw.io/24.1.0 Chrome/120.0.6099.109 Electron/28.1.0 Safari/537.36" etag="pWVfQANVpWYRHgm_NkCE" version="24.1.0" type="device">
  <diagram name="第 1 页" id="cel76hCXLqD6WBtZokLC">
    <mxGraphModel dx="703" dy="934" grid="1" gridSize="10" guides="1" tooltips="1" connect="1" arrows="1" fold="1" page="1" pageScale="1" pageWidth="827" pageHeight="1169" background="none" math="0" shadow="0">
      <root>
        <mxCell id="0" />
        <mxCell id="1" parent="0" />
        <mxCell id="e6DUbJQ5UPd30EaMvqX4-7" style="rounded=0;orthogonalLoop=1;jettySize=auto;html=1;exitX=0.5;exitY=1;exitDx=0;exitDy=0;entryX=0.5;entryY=0;entryDx=0;entryDy=0;" edge="1" parent="1" source="e6DUbJQ5UPd30EaMvqX4-1" target="e6DUbJQ5UPd30EaMvqX4-5">
          <mxGeometry relative="1" as="geometry" />
        </mxCell>
        <mxCell id="e6DUbJQ5UPd30EaMvqX4-9" style="edgeStyle=orthogonalEdgeStyle;rounded=0;orthogonalLoop=1;jettySize=auto;html=1;exitX=1;exitY=0.5;exitDx=0;exitDy=0;entryX=0;entryY=0.5;entryDx=0;entryDy=0;startArrow=classic;startFill=1;endArrow=none;endFill=0;" edge="1" parent="1" source="e6DUbJQ5UPd30EaMvqX4-1" target="e6DUbJQ5UPd30EaMvqX4-2">
          <mxGeometry relative="1" as="geometry" />
        </mxCell>
        <mxCell id="e6DUbJQ5UPd30EaMvqX4-1" value="管理员" style="rounded=0;whiteSpace=wrap;html=1;" vertex="1" parent="1">
          <mxGeometry x="50" y="210" width="120" height="60" as="geometry" />
        </mxCell>
        <mxCell id="e6DUbJQ5UPd30EaMvqX4-10" style="edgeStyle=orthogonalEdgeStyle;rounded=0;orthogonalLoop=1;jettySize=auto;html=1;exitX=1;exitY=0.5;exitDx=0;exitDy=0;entryX=0;entryY=0.5;entryDx=0;entryDy=0;startArrow=classic;startFill=1;endArrow=none;endFill=0;" edge="1" parent="1" source="e6DUbJQ5UPd30EaMvqX4-2" target="e6DUbJQ5UPd30EaMvqX4-3">
          <mxGeometry relative="1" as="geometry" />
        </mxCell>
        <mxCell id="e6DUbJQ5UPd30EaMvqX4-13" value="&lt;font style=&quot;font-size: 18px;&quot;&gt;n&lt;/font&gt;" style="edgeLabel;html=1;align=center;verticalAlign=middle;resizable=0;points=[];" vertex="1" connectable="0" parent="e6DUbJQ5UPd30EaMvqX4-10">
          <mxGeometry x="0.1571" y="4" relative="1" as="geometry">
            <mxPoint x="-8" y="-16" as="offset" />
          </mxGeometry>
        </mxCell>
        <mxCell id="e6DUbJQ5UPd30EaMvqX4-2" value="属于" style="rhombus;whiteSpace=wrap;html=1;" vertex="1" parent="1">
          <mxGeometry x="280" y="200" width="80" height="80" as="geometry" />
        </mxCell>
        <mxCell id="e6DUbJQ5UPd30EaMvqX4-11" style="rounded=0;orthogonalLoop=1;jettySize=auto;html=1;exitX=0.5;exitY=1;exitDx=0;exitDy=0;entryX=0.5;entryY=0;entryDx=0;entryDy=0;" edge="1" parent="1" source="e6DUbJQ5UPd30EaMvqX4-3" target="e6DUbJQ5UPd30EaMvqX4-6">
          <mxGeometry relative="1" as="geometry" />
        </mxCell>
        <mxCell id="e6DUbJQ5UPd30EaMvqX4-3" value="学生" style="rounded=0;whiteSpace=wrap;html=1;" vertex="1" parent="1">
          <mxGeometry x="510" y="210" width="120" height="60" as="geometry" />
        </mxCell>
        <mxCell id="e6DUbJQ5UPd30EaMvqX4-4" value="学生信息" style="rounded=0;whiteSpace=wrap;html=1;" vertex="1" parent="1">
          <mxGeometry x="260" y="430" width="120" height="60" as="geometry" />
        </mxCell>
        <mxCell id="e6DUbJQ5UPd30EaMvqX4-8" style="rounded=0;orthogonalLoop=1;jettySize=auto;html=1;exitX=0.5;exitY=1;exitDx=0;exitDy=0;entryX=0;entryY=0.5;entryDx=0;entryDy=0;" edge="1" parent="1" source="e6DUbJQ5UPd30EaMvqX4-5" target="e6DUbJQ5UPd30EaMvqX4-4">
          <mxGeometry relative="1" as="geometry" />
        </mxCell>
        <mxCell id="e6DUbJQ5UPd30EaMvqX4-5" value="管理" style="rhombus;whiteSpace=wrap;html=1;" vertex="1" parent="1">
          <mxGeometry x="130" y="330" width="80" height="80" as="geometry" />
        </mxCell>
        <mxCell id="e6DUbJQ5UPd30EaMvqX4-12" style="rounded=0;orthogonalLoop=1;jettySize=auto;html=1;exitX=0.5;exitY=1;exitDx=0;exitDy=0;entryX=1;entryY=0.5;entryDx=0;entryDy=0;" edge="1" parent="1" source="e6DUbJQ5UPd30EaMvqX4-6" target="e6DUbJQ5UPd30EaMvqX4-4">
          <mxGeometry relative="1" as="geometry" />
        </mxCell>
        <mxCell id="e6DUbJQ5UPd30EaMvqX4-19" value="&lt;font style=&quot;font-size: 18px;&quot;&gt;1&lt;/font&gt;" style="edgeLabel;html=1;align=center;verticalAlign=middle;resizable=0;points=[];" vertex="1" connectable="0" parent="e6DUbJQ5UPd30EaMvqX4-12">
          <mxGeometry x="-0.1303" y="-2" relative="1" as="geometry">
            <mxPoint x="-5" y="-12" as="offset" />
          </mxGeometry>
        </mxCell>
        <mxCell id="e6DUbJQ5UPd30EaMvqX4-6" value="拥有" style="rhombus;whiteSpace=wrap;html=1;" vertex="1" parent="1">
          <mxGeometry x="435" y="330" width="80" height="80" as="geometry" />
        </mxCell>
        <mxCell id="e6DUbJQ5UPd30EaMvqX4-14" value="&lt;font style=&quot;font-size: 18px;&quot;&gt;1&lt;/font&gt;" style="text;html=1;align=center;verticalAlign=middle;resizable=0;points=[];autosize=1;strokeColor=none;fillColor=none;" vertex="1" parent="1">
          <mxGeometry x="205" y="203" width="30" height="40" as="geometry" />
        </mxCell>
        <mxCell id="e6DUbJQ5UPd30EaMvqX4-16" value="&lt;font style=&quot;font-size: 18px;&quot;&gt;1&lt;/font&gt;" style="text;html=1;align=center;verticalAlign=middle;resizable=0;points=[];autosize=1;strokeColor=none;fillColor=none;" vertex="1" parent="1">
          <mxGeometry x="150" y="280" width="30" height="40" as="geometry" />
        </mxCell>
        <mxCell id="e6DUbJQ5UPd30EaMvqX4-17" value="&lt;font style=&quot;font-size: 18px;&quot;&gt;n&lt;/font&gt;" style="text;html=1;align=center;verticalAlign=middle;resizable=0;points=[];autosize=1;strokeColor=none;fillColor=none;" vertex="1" parent="1">
          <mxGeometry x="210" y="410" width="30" height="40" as="geometry" />
        </mxCell>
        <mxCell id="e6DUbJQ5UPd30EaMvqX4-18" value="&lt;font style=&quot;font-size: 18px;&quot;&gt;1&lt;/font&gt;" style="text;html=1;align=center;verticalAlign=middle;resizable=0;points=[];autosize=1;strokeColor=none;fillColor=none;" vertex="1" parent="1">
          <mxGeometry x="485" y="270" width="30" height="40" as="geometry" />
        </mxCell>
      </root>
    </mxGraphModel>
  </diagram>
</mxfile>
